# xmcd
#
# Track frame offsets:
#	150
#	17626
#	43552
#	69924
#
# Disc length: 1313 seconds
#
# Revision: 1
# Processed by: cddbd v1.5.2PL0 Copyright (c) Steve Scherf et al.
# Submitted via: audiograbber 1.83.01
#
DISCID=27051f04
DTITLE=Marco feat. Jesse Brade - I like Chopin (Maxi)
DYEAR=1900
DGENRE=Pop
TTITLE0=I like Chopin (Radio edit)
TTITLE1=I like Chopin (Extended version)
TTITLE2=I like Chopin eep blue mix)
TTITLE3=I like Chopin (FvB and Borno Mix)
EXTD=
EXTT0=
EXTT1=
EXTT2=
EXTT3=
PLAYORDER=
